# xmcd
#
# Track frame offsets: 
#        150
#        18217
#        34742
#        52637
#        75542
#        96415
#        122462
#        138222
#        156897
#        173590
#
# Disc length: 2460 seconds
#
# Revision: 2
# Processed by: cddbd v1.5.2PL0 Copyright (c) Steve Scherf et al.
# Submitted via: ExactAudioCopy v0.99pb4
#
DISCID=68099a0a
DTITLE=Dale Thompson and the Kentucky Cadillacs - testimony
DYEAR=1988
DGENRE=
TTITLE0=Better Watch What You Say
TTITLE1=Hand Me Down Religion
TTITLE2=Business As Usual
TTITLE3=Don't You Judge The Preacher
TTITLE4=Road Less Traveled
TTITLE5=Who'll Bell The Cat
TTITLE6=One Man's Opinion
TTITLE7=Ain't No Devil
TTITLE8=Ain't Done Me No Wrong
TTITLE9=If I Plant A Tree
EXTD=
EXTT0=
EXTT1=
EXTT2=
EXTT3=
EXTT4=
EXTT5=
EXTT6=
EXTT7=
EXTT8=
EXTT9=
PLAYORDER=
